<svg width="18" height="18" viewBox="0 0 18 18" fill="none" xmlns="http://www.w3.org/2000/svg">
<path d="M17.4799 9.2713C17.4799 8.94508 17.3504 8.63222 17.1197 8.40155C16.889 8.17088 16.5762 8.04129 16.25 8.04129H4.37996L9.60994 2.81129C9.84068 2.58056 9.97029 2.26761 9.97029 1.9413C9.97029 1.61499 9.84068 1.30204 9.60994 1.0713C9.3792 0.840566 9.06625 0.710937 8.73994 0.710938C8.41363 0.710937 8.10068 0.840566 7.86995 1.0713L0.579969 8.3613C0.459129 8.48107 0.364684 8.62479 0.302686 8.78323C0.240688 8.94167 0.212461 9.11132 0.219922 9.2813C0.215435 9.44643 0.245134 9.61072 0.30708 9.76387C0.369027 9.91702 0.461933 10.0557 0.579969 10.1713L7.86995 17.4613C7.9842 17.5756 8.11984 17.6662 8.26912 17.728C8.41839 17.7898 8.57837 17.8217 8.73994 17.8217C8.90152 17.8217 9.06149 17.7898 9.21077 17.728C9.36004 17.6662 9.49569 17.5756 9.60994 17.4613C9.72419 17.3471 9.81483 17.2114 9.87666 17.0621C9.93849 16.9129 9.97029 16.7529 9.97029 16.5913C9.97029 16.4297 9.93849 16.2697 9.87666 16.1205C9.81483 15.9712 9.72419 15.8355 9.60994 15.7213L4.37996 10.4913H16.25C16.5744 10.4913 16.8858 10.3631 17.1162 10.1346C17.3465 9.90607 17.4773 9.59578 17.4799 9.2713Z" fill="#1cb0f6"/>
</svg>
