<svg width="168" height="38" viewBox="0 0 168 38" fill="none" xmlns="http://www.w3.org/2000/svg">
<path d="M14.652 22.924C15.228 22.924 15.516 23.26 15.516 23.932V26.056C15.516 26.632 15.432 27.052 15.264 27.316C15.12 27.58 14.772 27.82 14.22 28.036C13.38 28.372 12.276 28.54 10.908 28.54C6.156 28.54 3.78 25.96 3.78 20.8V14.608H2.268C1.596 14.608 1.104 14.464 0.792 14.176C0.504 13.888 0.36 13.396 0.36 12.7V11.548C0.36 10.852 0.504 10.36 0.792 10.072C1.104 9.784 1.596 9.64 2.268 9.64H3.78V6.868C3.78 6.196 3.924 5.716 4.212 5.428C4.5 5.116 4.992 4.96 5.688 4.96H7.632C8.328 4.96 8.82 5.116 9.108 5.428C9.396 5.716 9.54 6.196 9.54 6.868V9.64H13.212C13.884 9.64 14.364 9.784 14.652 10.072C14.964 10.36 15.12 10.852 15.12 11.548V12.7C15.12 13.396 14.964 13.888 14.652 14.176C14.364 14.464 13.884 14.608 13.212 14.608H9.54V20.116C9.54 21.292 9.744 22.12 10.152 22.6C10.584 23.056 11.28 23.284 12.24 23.284C12.72 23.284 13.2 23.224 13.68 23.104C14.184 22.984 14.508 22.924 14.652 22.924ZM34.6742 9.64C35.3702 9.64 35.8622 9.796 36.1502 10.108C36.4382 10.396 36.5822 10.876 36.5822 11.548V26.956C36.5822 33.772 33.0422 37.18 25.9622 37.18C23.2742 37.18 21.2702 36.832 19.9502 36.136C19.5182 35.92 19.2182 35.668 19.0502 35.38C18.8822 35.116 18.7982 34.72 18.7982 34.192V32.212C18.7982 31.276 19.1822 30.808 19.9502 30.808C20.0942 30.808 20.7782 31 22.0022 31.384C23.2502 31.792 24.6542 31.996 26.2142 31.996C27.8942 31.996 29.1062 31.6 29.8502 30.808C30.5942 30.04 30.9662 28.852 30.9662 27.244V26.056C29.8142 27.352 28.0862 28 25.7822 28C23.5742 28 21.6902 27.256 20.1302 25.768C18.3782 24.088 17.5022 21.46 17.5022 17.884V11.548C17.5022 10.852 17.6462 10.36 17.9342 10.072C18.2462 9.784 18.7382 9.64 19.4102 9.64H21.3542C22.0262 9.64 22.5062 9.784 22.7942 10.072C23.1062 10.36 23.2622 10.852 23.2622 11.548V17.344C23.2622 19.36 23.6342 20.752 24.3782 21.52C25.0022 22.192 25.8662 22.528 26.9702 22.528C28.1222 22.528 29.0462 22.144 29.7422 21.376C30.4622 20.584 30.8222 19.3 30.8222 17.524V11.548C30.8222 10.876 30.9662 10.396 31.2542 10.108C31.5422 9.796 32.0342 9.64 32.7302 9.64H34.6742ZM51.4392 8.92C54.2472 8.92 56.5392 9.856 58.3152 11.728C60.0912 13.576 60.9792 15.94 60.9792 18.82C60.9792 21.628 60.0552 23.98 58.2072 25.876C56.3832 27.772 54.1032 28.72 51.3672 28.72C49.3752 28.72 47.6472 28.18 46.1832 27.1V35.704C46.1832 36.568 45.8232 37 45.1032 37C43.9272 37 42.8472 36.328 41.8632 34.984C40.9032 33.664 40.4232 31.936 40.4232 29.8V10.576C40.4232 9.712 40.7952 9.28 41.5392 9.28C42.0432 9.28 42.6072 9.496 43.2312 9.928C43.8552 10.336 44.4072 10.9 44.8872 11.62C45.5352 10.852 46.4472 10.216 47.6232 9.712C48.7992 9.184 50.0712 8.92 51.4392 8.92ZM50.6472 23.536C51.9192 23.536 52.9872 23.104 53.8512 22.24C54.7152 21.376 55.1472 20.236 55.1472 18.82C55.1472 17.428 54.7152 16.3 53.8512 15.436C52.9872 14.548 51.9192 14.104 50.6472 14.104C49.3752 14.104 48.3072 14.548 47.4432 15.436C46.6032 16.3 46.1832 17.428 46.1832 18.82C46.1832 20.236 46.6152 21.376 47.4792 22.24C48.3432 23.104 49.3992 23.536 50.6472 23.536ZM81.2846 18.748C81.2846 19.396 81.1526 19.864 80.8886 20.152C80.6246 20.416 80.1446 20.548 79.4486 20.548H68.2886C68.5526 21.46 69.1406 22.216 70.0526 22.816C70.9646 23.392 72.1526 23.68 73.6166 23.68C74.9126 23.68 76.1126 23.524 77.2166 23.212C78.3206 22.9 78.8846 22.744 78.9086 22.744C79.5566 22.744 79.8806 23.092 79.8806 23.788V25.876C79.8806 26.668 79.6286 27.22 79.1246 27.532C77.8526 28.324 75.8246 28.72 73.0406 28.72C70.0406 28.72 67.5446 27.832 65.5526 26.056C63.5846 24.28 62.6006 21.868 62.6006 18.82C62.6006 16.06 63.4886 13.72 65.2646 11.8C67.0646 9.88 69.3086 8.92 71.9966 8.92C74.9726 8.92 77.2646 9.808 78.8726 11.584C80.4806 13.336 81.2846 15.724 81.2846 18.748ZM72.0686 13.744C71.0126 13.744 70.1486 14.032 69.4766 14.608C68.8286 15.16 68.4206 15.904 68.2526 16.84H75.7046C75.5846 15.904 75.2126 15.16 74.5886 14.608C73.9886 14.032 73.1486 13.744 72.0686 13.744ZM86.0403 28C85.3443 28 84.8523 27.856 84.5643 27.568C84.2763 27.256 84.1323 26.764 84.1323 26.092V7.84C84.1323 5.704 84.6123 3.976 85.5723 2.656C86.5563 1.312 87.6363 0.639998 88.8123 0.639998C89.5323 0.639998 89.8923 1.072 89.8923 1.936V26.092C89.8923 26.764 89.7483 27.256 89.4603 27.568C89.1723 27.856 88.6803 28 87.9843 28H86.0403ZM96.8434 6.724C95.9314 6.724 95.1514 6.424 94.5034 5.824C93.8794 5.2 93.5674 4.456 93.5674 3.592C93.5674 2.704 93.8794 1.96 94.5034 1.36C95.1514 0.759999 95.9314 0.459998 96.8434 0.459998C97.7314 0.459998 98.4994 0.771999 99.1474 1.396C99.7954 1.996 100.119 2.728 100.119 3.592C100.119 4.456 99.7954 5.2 99.1474 5.824C98.4994 6.424 97.7314 6.724 96.8434 6.724ZM95.8714 28C95.1994 28 94.7074 27.856 94.3954 27.568C94.1074 27.28 93.9634 26.788 93.9634 26.092V11.548C93.9634 10.852 94.1074 10.36 94.3954 10.072C94.7074 9.784 95.1994 9.64 95.8714 9.64H97.8154C98.4874 9.64 98.9674 9.784 99.2554 10.072C99.5674 10.36 99.7234 10.852 99.7234 11.548V26.092C99.7234 26.788 99.5674 27.28 99.2554 27.568C98.9674 27.856 98.4874 28 97.8154 28H95.8714ZM121.038 11.584C122.502 13.288 123.234 15.82 123.234 19.18V26.092C123.234 26.788 123.078 27.28 122.766 27.568C122.478 27.856 121.998 28 121.326 28H119.382C118.71 28 118.218 27.856 117.906 27.568C117.618 27.28 117.474 26.788 117.474 26.092V19.36C117.474 17.656 117.174 16.42 116.574 15.652C115.926 14.812 114.954 14.392 113.658 14.392C112.362 14.392 111.354 14.812 110.634 15.652C109.914 16.492 109.554 17.716 109.554 19.324V26.092C109.554 26.764 109.41 27.256 109.122 27.568C108.834 27.856 108.342 28 107.646 28H105.702C105.006 28 104.514 27.856 104.226 27.568C103.938 27.256 103.794 26.764 103.794 26.092V10.576C103.794 9.712 104.166 9.28 104.91 9.28C105.438 9.28 106.014 9.496 106.638 9.928C107.262 10.336 107.814 10.924 108.294 11.692C109.038 10.804 109.962 10.12 111.066 9.64C112.194 9.16 113.346 8.92 114.522 8.92C117.306 8.92 119.478 9.808 121.038 11.584ZM135.305 37.18C132.281 37.18 129.845 36.424 127.997 34.912C126.149 33.4 125.225 31.396 125.225 28.9C125.225 27.532 125.573 26.236 126.269 25.012C126.965 23.764 127.901 22.84 129.077 22.24C127.181 20.68 126.233 18.832 126.233 16.696C126.233 14.488 127.037 12.676 128.645 11.26C130.253 9.82 132.377 9.1 135.017 9.1C136.193 9.1 137.345 9.196 138.473 9.388C139.625 9.556 140.453 9.64 140.957 9.64C142.109 9.64 143.285 9.316 144.485 8.668C144.941 8.428 145.325 8.308 145.637 8.308C146.381 8.308 146.753 8.848 146.753 9.928C146.753 12.088 145.781 13.516 143.837 14.212C144.197 14.956 144.377 15.784 144.377 16.696C144.377 18.76 143.429 20.608 141.533 22.24C142.709 22.816 143.645 23.728 144.341 24.976C145.037 26.2 145.385 27.508 145.385 28.9C145.385 31.396 144.461 33.4 142.613 34.912C140.789 36.424 138.353 37.18 135.305 37.18ZM132.785 19.432C133.481 20.08 134.321 20.404 135.305 20.404C136.289 20.404 137.117 20.08 137.789 19.432C138.485 18.76 138.833 17.956 138.833 17.02C138.833 16.012 138.509 15.196 137.861 14.572C137.213 13.948 136.361 13.636 135.305 13.636C134.249 13.636 133.397 13.948 132.749 14.572C132.101 15.196 131.777 16.012 131.777 17.02C131.777 17.956 132.113 18.76 132.785 19.432ZM135.305 32.5C136.529 32.5 137.561 32.128 138.401 31.384C139.265 30.664 139.697 29.776 139.697 28.72C139.697 27.592 139.289 26.68 138.473 25.984C137.681 25.288 136.625 24.94 135.305 24.94C133.985 24.94 132.917 25.288 132.101 25.984C131.309 26.68 130.913 27.592 130.913 28.72C130.913 29.776 131.333 30.664 132.173 31.384C133.013 32.128 134.057 32.5 135.305 32.5ZM164.655 25.912C162.711 27.784 160.275 28.72 157.347 28.72C154.419 28.72 151.983 27.784 150.039 25.912C148.095 24.04 147.123 21.676 147.123 18.82C147.123 15.94 148.095 13.576 150.039 11.728C151.983 9.856 154.419 8.92 157.347 8.92C160.275 8.92 162.711 9.856 164.655 11.728C166.599 13.576 167.571 15.94 167.571 18.82C167.571 21.676 166.599 24.04 164.655 25.912ZM154.143 22.24C154.935 23.104 156.003 23.536 157.347 23.536C158.691 23.536 159.759 23.104 160.551 22.24C161.343 21.352 161.739 20.212 161.739 18.82C161.739 17.428 161.343 16.3 160.551 15.436C159.759 14.548 158.691 14.104 157.347 14.104C156.003 14.104 154.935 14.548 154.143 15.436C153.351 16.3 152.955 17.428 152.955 18.82C152.955 20.212 153.351 21.352 154.143 22.24Z" fill="#358EF1"/>
</svg>
