<svg width="24" height="21" viewBox="0 0 24 21" fill="none" xmlns="http://www.w3.org/2000/svg">
<path d="M1.45019 0C0.650195 0 0 0.650195 0 1.4502V2.5V3V3.5V21H24V3.5V2.5V1.4502C24 0.650195 23.3498 0 22.5498 0H1.45019ZM1.45019 1H22.5498C22.7498 1 23 1.2502 23 1.4502V2.5H1V1.4502C1 1.2502 1.25019 1 1.45019 1ZM1 3.5H23V20H1V3.5ZM13.8887 5.99317C13.6876 5.99871 13.5095 6.12414 13.4365 6.31153L9.13671 16.8613C9.06936 17.0269 9.09545 17.2158 9.20515 17.3569C9.31485 17.498 9.49151 17.5698 9.66856 17.5454C9.8456 17.5209 9.99615 17.4038 10.0635 17.2383L14.3633 6.68847C14.4299 6.53168 14.4121 6.35178 14.316 6.21109C14.22 6.07041 14.0589 5.98828 13.8887 5.99317ZM7.72071 8.84668C7.62493 8.84385 7.53036 8.8686 7.44825 8.91797L4.09864 10.8682C3.94389 10.9582 3.8491 11.1241 3.85011 11.3032C3.85112 11.4822 3.94777 11.647 4.10352 11.7353L7.45313 13.6348C7.6934 13.7709 7.99859 13.6866 8.13477 13.4463C8.27096 13.206 8.18657 12.9008 7.94629 12.7647L5.35352 11.2949L7.95117 9.78223C8.14684 9.67205 8.24506 9.44494 8.19135 9.2269C8.13764 9.00886 7.94517 8.85336 7.72071 8.84668ZM16.2647 8.84668C16.0427 8.85934 15.8558 9.01694 15.8059 9.23351C15.7559 9.45008 15.8549 9.67364 16.0488 9.78223L18.6465 11.2949L16.0537 12.7647C15.8134 12.9008 15.729 13.206 15.8652 13.4463C16.0014 13.6866 16.3066 13.7709 16.5469 13.6348L19.8965 11.7353C20.0522 11.647 20.1489 11.4822 20.1499 11.3032C20.1509 11.1241 20.0561 10.9582 19.9014 10.8682L16.5518 8.91797C16.4799 8.87467 16.3983 8.85016 16.3145 8.84668C16.2979 8.84585 16.2812 8.84585 16.2647 8.84668Z" fill="#F35D61"/>
</svg>
