<svg width="79" height="73" viewBox="0 0 79 73" fill="none" xmlns="http://www.w3.org/2000/svg">
<path fill-rule="evenodd" clip-rule="evenodd" d="M53.8696 21.2109C62.4808 21.2109 69.9974 27.1259 72.1316 35.5817L78.1694 59.5037C79.5382 64.9269 76.3104 70.4479 70.9598 71.8353C70.15 72.0453 69.3174 72.1515 68.4814 72.1515H39.2578C33.735 72.1515 29.2578 67.6135 29.2578 62.0157C29.2578 61.1685 29.3626 60.3245 29.5698 59.5037L35.6076 35.5817C37.7418 27.1259 45.2584 21.2109 53.8696 21.2109Z" fill="#363636"/>
<path fill-rule="evenodd" clip-rule="evenodd" d="M53.8696 27.7578C62.5132 27.7578 69.5204 34.86 69.5204 43.6212V51.686C69.5204 60.447 62.5132 67.5492 53.8696 67.5492C45.2258 67.5492 38.2188 60.447 38.2188 51.686V43.6212C38.2188 34.86 45.2258 27.7578 53.8696 27.7578Z" fill="#A56644"/>
<path d="M62.4729 23.4609C62.9841 23.4609 63.3987 23.8811 63.3987 24.3993C63.3987 32.1147 57.2279 38.3691 49.6157 38.3691H35.3301C34.8187 38.3691 34.4043 37.9491 34.4043 37.4309V24.3993C34.4043 23.8811 34.8187 23.4609 35.3301 23.4609H62.4729Z" fill="#363636"/>
<path d="M59.9982 49.9375C60.5094 49.9375 60.9238 50.3575 60.9238 50.8757V51.8987C60.9238 55.8467 57.7662 59.0471 53.8712 59.0471C49.976 59.0471 46.8184 55.8467 46.8184 51.8987V50.8757C46.8184 50.3575 47.233 49.9375 47.7442 49.9375H59.9982Z" fill="white"/>
<path d="M60.3152 41.4053C60.3152 40.3747 59.4908 39.5391 58.474 39.5391C57.457 39.5391 56.6328 40.3747 56.6328 41.4053V45.2297C56.6328 46.2605 57.457 47.0959 58.474 47.0959C59.4908 47.0959 60.3152 46.2605 60.3152 45.2297V41.4053Z" fill="#7B482D"/>
<path d="M51.1084 41.4053C51.1084 40.3747 50.284 39.5391 49.267 39.5391C48.2502 39.5391 47.4258 40.3747 47.4258 41.4053V45.2297C47.4258 46.2605 48.2502 47.0959 49.267 47.0959C50.284 47.0959 51.1084 46.2605 51.1084 45.2297V41.4053Z" fill="#7B482D"/>
<path d="M71.0453 50.8745C74.0961 50.8745 76.5691 48.3369 76.5691 45.2067C76.5691 42.0765 74.0961 39.5391 71.0453 39.5391C67.9947 39.5391 65.5215 42.0765 65.5215 45.2067C65.5215 48.3369 67.9947 50.8745 71.0453 50.8745Z" fill="#A56644"/>
<path d="M36.6957 50.8745C39.7463 50.8745 42.2195 48.3369 42.2195 45.2067C42.2195 42.0765 39.7463 39.5391 36.6957 39.5391C33.6449 39.5391 31.1719 42.0765 31.1719 45.2067C31.1719 48.3369 33.6449 50.8745 36.6957 50.8745Z" fill="#A56644"/>
<path d="M24.3915 0.0078125C34.2757 0.0078125 42.2885 8.12939 42.2885 18.148V26.4846C42.2885 27.0028 41.8741 27.4228 41.3629 27.4228L12.8636 27.4194L9.59617 27.1336C9.23541 27.102 8.92591 26.8602 8.80405 26.5144L6.14189 18.9644L6.08789 18.6486V18.148C6.08789 8.12939 14.1007 0.0078125 23.9851 0.0078125H24.3915Z" fill="#FFD900"/>
<path d="M41.3617 33.8661C44.4125 33.8661 46.8855 31.3865 46.8855 28.3275C46.8855 25.2687 44.4125 22.7891 41.3617 22.7891C38.3111 22.7891 35.8379 25.2687 35.8379 28.3275C35.8379 31.3865 38.3111 33.8661 41.3617 33.8661Z" fill="#FFAD92"/>
<path d="M7.01209 33.8661C10.0628 33.8661 12.5359 31.3865 12.5359 28.3275C12.5359 25.2687 10.0628 22.7891 7.01209 22.7891C3.96137 22.7891 1.48828 25.2687 1.48828 28.3275C1.48828 31.3865 3.96137 33.8661 7.01209 33.8661Z" fill="#FFAD92"/>
<path fill-rule="evenodd" clip-rule="evenodd" d="M16.2514 11.5H32.1244C36.3848 11.5 39.8386 15.0007 39.8386 19.319V34.3154C39.8386 43.0766 32.8316 50.1788 24.1878 50.1788C15.5442 50.1788 8.53711 43.0766 8.53711 34.3154V19.319C8.53711 15.0007 11.9909 11.5 16.2514 11.5Z" fill="#FFAD92"/>
<path d="M30.6316 24.6555C30.6316 23.6247 29.8074 22.7891 28.7904 22.7891C27.7736 22.7891 26.9492 23.6247 26.9492 24.6555V28.3075C26.9492 29.3381 27.7736 30.1737 28.7904 30.1737C29.8074 30.1737 30.6316 29.3381 30.6316 28.3075V24.6555Z" fill="#C97356"/>
<path d="M21.4248 24.6555C21.4248 23.6247 20.6004 22.7891 19.5834 22.7891C18.5665 22.7891 17.7422 23.6247 17.7422 24.6555V28.3075C17.7422 29.3381 18.5665 30.1737 19.5834 30.1737C20.6004 30.1737 21.4248 29.3381 21.4248 28.3075V24.6555Z" fill="#C97356"/>
<path d="M32.4734 8.92969C32.9846 8.92969 33.3992 9.34979 33.3992 9.86799C33.3992 18.5429 26.4608 25.5755 17.902 25.5755H15.7432C7.1844 25.5755 0.246094 18.5429 0.246094 9.86799C0.246094 9.34979 0.66055 8.92969 1.17181 8.92969H32.4734Z" fill="#FFD900"/>
<path d="M16.9575 35.2765C16.3996 34.7111 16.3996 33.7943 16.9575 33.2289C17.5154 32.6633 18.4199 32.6633 18.9778 33.2289C21.7673 36.0561 26.2899 36.0561 29.0793 33.2289C29.6373 32.6633 30.5417 32.6633 31.0997 33.2289C31.6575 33.7943 31.6575 34.7111 31.0997 35.2765C27.1943 39.2349 20.8627 39.2349 16.9575 35.2765Z" fill="#DE8A6E"/>
</svg>
