<svg width="81" height="81" viewBox="0 0 81 81" fill="none" xmlns="http://www.w3.org/2000/svg">
<path d="M73.1704 41.2677C73.1704 39.0293 72.972 36.9043 72.632 34.8359H40.6152V47.6143H58.947C58.1252 51.8077 55.717 55.3495 52.147 57.7577V66.2579H63.0836C69.487 60.3361 73.1704 51.6095 73.1704 41.2677Z" fill="#4285F4"/>
<path d="M40.6148 74.504C49.7948 74.504 57.4732 71.444 63.0832 66.259L52.1466 57.759C49.0864 59.799 45.2048 61.0456 40.6148 61.0456C31.7464 61.0456 24.238 55.0672 21.5462 46.9922H10.2695V55.7472C15.8513 66.854 27.3264 74.504 40.6148 74.504Z" fill="#34A853"/>
<path d="M21.5469 46.9896C20.8387 44.9496 20.4703 42.7678 20.4703 40.5012C20.4703 38.2344 20.8669 36.0528 21.5469 34.0128V25.2578H10.2703C7.94689 29.8478 6.61523 35.0044 6.61523 40.5012C6.61523 45.9978 7.94689 51.1546 10.2703 55.7446L21.5469 46.9896Z" fill="#FBBC05"/>
<path d="M40.6148 19.9584C45.6298 19.9584 50.1064 21.6868 53.6482 25.0584L63.3382 15.3684C57.4732 9.87168 49.7948 6.5 40.6148 6.5C27.3264 6.5 15.8513 14.1501 10.2695 25.2568L21.5462 34.0118C24.238 25.9368 31.7464 19.9584 40.6148 19.9584Z" fill="#EA4335"/>
</svg>
