<svg width="22" height="26" viewBox="0 0 22 26" fill="none" xmlns="http://www.w3.org/2000/svg">
<path fill-rule="evenodd" clip-rule="evenodd" d="M10.8731 0.850708C6.94492 0.850708 3.76042 3.83658 3.76042 7.51985V9.79555C3.76042 9.85115 3.76122 9.90665 3.76262 9.96185H3.70492C1.85401 9.96185 0.353516 11.4623 0.353516 13.3132V22.2543C0.353516 24.1052 1.85401 25.6057 3.70492 25.6057H18.0455C19.8965 25.6057 21.397 24.1052 21.397 22.2543V13.3133C21.397 11.4623 19.8965 9.96185 18.0455 9.96185H17.9837C17.9851 9.90665 17.9858 9.85115 17.9858 9.79555V7.51985C17.9858 3.83657 14.8014 0.850708 10.8731 0.850708ZM14.4812 9.96185C14.484 9.90675 14.4855 9.85135 14.4855 9.79555V7.51985C14.4855 5.6492 12.8682 4.13277 10.8731 4.13277C8.87812 4.13277 7.26081 5.6492 7.26081 7.51985V9.79555C7.26081 9.85135 7.26222 9.90675 7.26512 9.96185H14.4812Z" fill="#AFAFAF"/>
</svg>
