<svg width="154" height="36" viewBox="0 0 154 36" fill="none" xmlns="http://www.w3.org/2000/svg">
<path d="M133.473 17.9988C133.473 12.3064 137.81 8.29464 143.557 8.29464C149.304 8.29464 153.641 12.3064 153.641 17.9988C153.641 23.6912 149.304 27.703 143.557 27.703C137.81 27.703 133.473 23.637 133.473 17.9988ZM147.948 17.9988C147.948 15.3424 146.268 13.3907 143.611 13.3907C140.955 13.3907 139.274 15.3424 139.274 17.9988C139.274 20.6553 140.955 22.607 143.611 22.607C146.268 22.607 147.948 20.7095 147.948 17.9988ZM129.678 13.4991C130.058 14.2581 130.22 15.0713 130.22 15.9387C130.22 17.9988 129.136 19.8963 127.401 21.3601C129.787 22.4985 131.196 25.2634 131.196 27.8657C131.196 32.7449 127.239 35.9977 121.221 35.9977C115.203 35.9977 111.246 32.7991 111.246 27.8657C111.192 25.155 112.655 22.6612 115.041 21.3601C113.252 19.8963 112.222 17.9988 112.222 15.9387C112.222 11.6559 115.583 8.5115 120.896 8.5115C124.04 8.5115 124.962 9.05363 126.751 9.05363C127.944 9.10784 129.19 8.78256 130.22 8.132C130.6 7.91515 130.979 7.75251 131.413 7.75251C132.118 7.75251 132.497 8.45728 132.497 9.3247C132.66 11.2222 131.467 12.9028 129.678 13.4991ZM125.612 27.703C125.612 25.5345 123.932 24.0165 121.275 24.0165C118.619 24.0165 116.938 25.4803 116.938 27.703C116.938 29.7631 118.781 31.3895 121.275 31.3895C123.769 31.3895 125.612 29.7631 125.612 27.703ZM117.751 16.264C117.806 18.1615 119.432 19.6794 121.384 19.6252C123.227 19.571 124.636 18.1073 124.745 16.264C124.745 14.3123 123.335 12.957 121.275 12.957C119.215 12.957 117.751 14.2581 117.751 16.264ZM108.644 18.3783V25.155C108.644 26.4561 108.156 26.9982 106.746 26.9982H104.849C103.439 26.9982 102.951 26.4561 102.951 25.155V18.541C102.951 16.8604 102.68 15.6677 102.084 14.9087C101.379 14.0413 100.295 13.6076 99.2104 13.6618C98.072 13.6076 96.9877 14.0955 96.2287 14.9087C95.5781 15.6677 95.1444 16.8604 95.1444 18.4868V25.1008C95.1444 26.4561 94.5481 26.944 93.247 26.944H91.3495C90.0484 26.944 89.452 26.4561 89.452 25.1008V9.92104C89.452 9.05363 89.8857 8.67414 90.5363 8.67414C91.5121 8.67414 92.8675 9.48734 93.8975 11.0595C95.4697 9.3247 97.6925 8.34886 100.024 8.34886C102.789 8.34886 105.011 9.3247 106.475 10.9511C107.939 12.5775 108.644 14.8002 108.644 18.3783ZM79.0431 3.09016C79.0431 1.35533 80.5068 0 82.1874 0H82.2959C83.9765 0.108427 85.2776 1.57219 85.1692 3.2528C85.0608 4.93341 83.597 6.23454 81.9164 6.12611C80.29 6.0719 79.0431 4.71656 79.0431 3.09016ZM79.4226 25.155V10.8969C79.4226 9.59576 79.9105 8.99942 81.32 8.99942H83.2175C84.627 8.99942 85.115 9.54155 85.115 10.8969V25.155C85.115 26.4561 84.627 26.9982 83.2175 26.9982H81.32C79.9105 26.9982 79.4226 26.4561 79.4226 25.155ZM69.3931 25.155V7.26459C69.3931 2.76488 71.8869 0.216853 74.0012 0.216853C74.6518 0.216853 75.0855 0.65056 75.0855 1.46376V25.155C75.0855 26.5103 74.5434 26.9982 73.188 26.9982H71.2906C69.9894 26.9982 69.3931 26.5103 69.3931 25.155ZM45.9729 17.9988C45.9729 12.3064 50.31 8.29464 56.0566 8.29464C61.8032 8.29464 66.1403 12.3064 66.1403 17.9988C66.1403 23.6912 61.8032 27.703 56.0566 27.703C50.31 27.703 45.9729 23.637 45.9729 17.9988ZM60.3937 17.9988C60.3937 15.3424 58.7131 13.3907 56.0566 13.3907C53.4002 13.3907 51.7195 15.3424 51.7195 17.9988C51.7195 20.6553 53.4002 22.607 56.0566 22.607C58.7131 22.607 60.3937 20.7095 60.3937 17.9988ZM43.0454 10.8969V26.0766C43.0454 26.944 42.6117 27.3235 41.9611 27.3235C40.9853 27.3235 39.63 26.5103 38.6541 24.9924C37.1361 26.7272 34.9676 27.703 32.6364 27.6488C30.4679 27.703 28.4078 26.944 26.7814 25.4803C25.1008 23.8539 24.1792 21.3601 24.1792 17.782V10.8969C24.1792 9.59576 24.6671 8.99942 26.0766 8.99942H27.9741C29.3836 8.99942 29.8716 9.54155 29.8716 10.8969V17.2941C29.8716 19.4626 30.2511 20.6011 30.9558 21.3601C31.6064 22.0106 32.5822 22.3901 33.5038 22.3359C34.5339 22.3359 35.5097 21.9564 36.2145 21.1974C36.9193 20.4384 37.2988 19.2457 37.2988 17.4025V10.8969C37.2988 9.54155 37.8951 8.99942 39.1963 8.99942H41.0937C42.4491 8.99942 43.0454 9.54155 43.0454 10.8969ZM20.2758 1.46376V26.0766C20.2758 26.944 19.8421 27.3235 19.1915 27.3235C18.2157 27.3235 16.8604 26.5103 15.8845 25.0466C14.6918 26.4561 12.2522 27.703 9.43312 27.703C3.79493 27.703 0 23.5828 0 17.9988C0 12.4149 3.90336 8.29464 9.43312 8.29464C11.2764 8.29464 13.0654 8.83678 14.6376 9.86683V7.26459C14.6376 2.76488 17.1856 0.216853 19.2457 0.216853C19.8963 0.216853 20.2758 0.65056 20.2758 1.46376ZM14.6376 17.9988C14.6376 15.234 12.6859 13.3907 10.2463 13.3907C7.80672 13.3907 5.80083 15.234 5.80083 17.9988C5.80083 20.7637 7.75251 22.607 10.2463 22.607C12.7401 22.607 14.6376 20.8179 14.6376 17.9988Z" fill="white"/>
</svg>