<svg width="361" height="361" viewBox="0 0 361 361" fill="none" xmlns="http://www.w3.org/2000/svg">
<g clip-path="url(#clip0_3_850)">
<path d="M180.344 360.5C279.755 360.5 360.344 279.911 360.344 180.5C360.344 81.0887 279.755 0.5 180.344 0.5C80.9324 0.5 0.34375 81.0887 0.34375 180.5C0.34375 279.911 80.9324 360.5 180.344 360.5Z" fill="#24D4DE" fill-opacity="0.04"/>
<path d="M180.727 331.9C264.131 331.9 331.743 264.288 331.743 180.884C331.743 97.4794 264.131 29.8672 180.727 29.8672C97.3231 29.8672 29.7109 97.4794 29.7109 180.884C29.7109 264.288 97.3231 331.9 180.727 331.9Z" fill="#24D4DE" fill-opacity="0.06"/>
<path d="M180.82 307.076C250.461 307.076 306.917 250.621 306.917 180.98C306.917 111.338 250.461 54.8828 180.82 54.8828C111.178 54.8828 54.7227 111.338 54.7227 180.98C54.7227 250.621 111.178 307.076 180.82 307.076Z" fill="#49C0F8"/>
<path opacity="0.732096" fill-rule="evenodd" clip-rule="evenodd" d="M95.6767 196.234C118.487 196.234 136.979 214.725 136.979 237.536C136.979 258.577 121.244 275.943 100.9 278.51L100.897 278.512C76.7736 258.721 60.1241 230.156 55.8242 197.693L55.8256 197.691C59.3021 196.741 62.9615 196.234 66.7393 196.234H95.6767Z" fill="#58A700"/>
<path opacity="0.732096" fill-rule="evenodd" clip-rule="evenodd" d="M162.934 91.8004C162.934 112.002 148.429 128.817 129.266 132.398L128.685 132.502L128.726 132.799C128.963 134.591 129.086 136.419 129.086 138.276C129.086 161.086 110.594 179.577 87.7838 179.577H58.8464C57.5197 179.577 56.2076 179.515 54.9129 179.392L54.9102 179.391C55.6177 122.12 94.5048 74.0436 147.295 59.4375L147.297 59.4391C156.824 67.0051 162.934 78.6893 162.934 91.8004Z" fill="#58A700"/>
<path opacity="0.732096" fill-rule="evenodd" clip-rule="evenodd" d="M249.656 153.617C272.466 153.617 290.957 172.109 290.957 194.919C290.957 201.993 289.179 208.652 286.044 214.473L295.383 216.267C297.453 216.664 299.462 217.244 301.393 217.99L301.397 217.991C295.194 238.222 284.039 256.287 269.347 270.773L249.831 270.77C230.654 270.77 215.081 255.342 214.846 236.221L211.599 236.22C188.788 236.22 170.297 217.729 170.297 194.919C170.297 172.109 188.788 153.617 211.599 153.617H249.656Z" fill="#58A700"/>
<path opacity="0.732096" fill-rule="evenodd" clip-rule="evenodd" d="M241.375 70.3438C264.038 82.7746 282.465 101.966 293.943 125.204L274.555 125.206C271.3 135.768 261.462 143.444 249.831 143.444H236.853C222.566 143.444 210.984 131.863 210.984 117.576C210.984 103.838 221.694 92.6005 235.221 91.7585C235.198 91.248 235.187 90.7339 235.187 90.2172C235.187 82.8743 237.448 76.0598 241.314 70.4324L241.375 70.3438Z" fill="#58A700"/>
<path fill-rule="evenodd" clip-rule="evenodd" d="M259.48 253.938C266.618 253.938 272.713 258.402 275.124 264.691C267.344 273.451 258.361 281.119 248.435 287.436L210.374 287.435C201.124 287.435 193.625 279.936 193.625 270.686C193.625 261.436 201.124 253.938 210.374 253.938H259.48Z" fill="#BBF3F6"/>
<path d="M185.117 75.0469H165.124C155.874 75.0469 148.375 82.5456 148.375 91.7956C148.375 101.045 155.874 108.544 165.124 108.544H185.117C194.367 108.544 201.866 101.045 201.866 91.7956C201.866 82.5456 194.367 75.0469 185.117 75.0469Z" fill="#BBF3F6"/>
<path fill-rule="evenodd" clip-rule="evenodd" d="M95.9919 87.6797L107.321 87.6814C116.571 87.6814 124.07 95.18 124.07 104.43C124.07 106.697 123.619 108.859 122.803 110.832L128.191 110.831C137.441 110.831 144.94 118.33 144.94 127.58C144.94 136.83 137.441 144.329 128.191 144.329H108.198C98.9479 144.329 91.4493 136.83 91.4493 127.58C91.4493 125.313 91.8998 123.151 92.7161 121.178H69.7773C76.5156 108.692 85.2983 97.4728 95.6769 87.9673L95.9919 87.6797Z" fill="#BBF3F6"/>
</g>
<defs>
<clipPath id="clip0_3_850">
<rect width="360" height="360" fill="white" transform="translate(0.34375 0.5)"/>
</clipPath>
</defs>
</svg>
