<svg width="40" height="35" viewBox="0 0 40 35" fill="none" xmlns="http://www.w3.org/2000/svg">
<path fill-rule="evenodd" clip-rule="evenodd" d="M13.0867 1.18448C10.241 -0.0388722 6.97179 2.03218 6.97179 5.18979V13.9372C6.97179 20.3385 11.3546 25.6926 17.2181 27.0308C18.2287 27.4108 18.5393 27.922 18.5793 28.3294V28.418V28.4238V28.504C18.5687 28.756 18.4591 29.0982 18.1536 29.3752H14.9409C14.1526 29.3752 13.5136 30.0142 13.5136 30.8025C13.5136 30.9631 13.5401 31.1174 13.5889 31.2614H12.0182C11.2272 31.2614 10.5859 31.9027 10.5859 32.6938C10.5859 33.4849 11.2272 34.1261 12.0182 34.1261H27.7601C28.5512 34.1261 29.1925 33.4849 29.1925 32.6938C29.1925 31.9027 28.5512 31.2614 27.7601 31.2614H26.4615C26.5103 31.1174 26.5368 30.9631 26.5368 30.8025C26.5368 30.0142 25.8978 29.3752 25.1095 29.3752H21.8507C21.5685 29.1522 21.4241 28.878 21.3681 28.6414V28.359C21.4457 27.9007 21.8765 27.3331 23.2268 26.9656C28.9533 25.5261 33.2011 20.2391 33.2011 13.9372V5.18979C33.2011 2.03218 29.9319 -0.0388713 27.0862 1.18448C24.4325 2.32525 21.5919 3.3697 20.0864 3.3697C18.581 3.3697 15.7403 2.32525 13.0867 1.18448ZM3.35009 16.9029C1.6223 15.9945 0.682223 13.9766 1.20034 12.0168C1.30684 11.614 1.71874 11.3775 2.12034 11.4886L2.25989 11.5272C3.46034 11.8593 4.40222 12.6779 4.93 13.7122C5.27824 13.9147 5.50967 14.2944 5.50263 14.7258C5.48629 15.7278 5.65091 17.4356 6.20872 19.1766C6.76885 20.9248 7.68562 22.5846 9.0855 23.6501C9.5909 24.0347 9.6887 24.7562 9.3041 25.2616C9.2195 25.3727 9.1187 25.4641 9.0075 25.535C8.05615 27.3722 5.86647 28.2286 3.88711 27.4559C3.50596 27.3072 3.31291 26.8758 3.45591 26.4924L3.57108 26.1837C4.00725 25.0144 4.91081 24.1655 5.98825 23.7682C5.67974 23.366 5.40435 22.9445 5.15877 22.5128C3.26086 22.8692 1.32119 21.8643 0.556683 19.9966C0.399113 19.6117 0.581323 19.1669 0.963653 19.0031L1.11386 18.9388C1.9626 18.5753 2.85995 18.513 3.68935 18.7043C3.53785 18.0784 3.42727 17.4704 3.35009 16.9029ZM34.6154 13.774C34.3208 13.9866 34.1315 14.335 34.1379 14.7258C34.1542 15.7278 33.9896 17.4356 33.4318 19.1766C32.8717 20.9248 31.9549 22.5846 30.555 23.6501C30.0496 24.0347 29.9518 24.7562 30.3364 25.2616C30.4351 25.3913 30.556 25.4942 30.6897 25.5689C31.6503 27.3827 33.8252 28.2238 35.7924 27.4559C36.1735 27.3072 36.3666 26.8758 36.2236 26.4924L36.1084 26.1837C35.6681 25.0034 34.7516 24.1495 33.6608 23.7571C33.9786 23.3415 34.2612 22.9055 34.5122 22.459C36.4859 22.9543 38.5623 21.9449 39.3598 19.9966C39.5174 19.6117 39.3352 19.1669 38.9528 19.0031L38.8026 18.9388C37.852 18.5316 36.8405 18.5024 35.9317 18.784C36.0997 18.1037 36.2193 17.4433 36.3 16.8316C38.0398 15.8654 38.9272 13.7708 38.3135 11.8049C38.1894 11.4073 37.7679 11.1899 37.372 11.3192L37.2291 11.3659C36.0073 11.765 35.0835 12.6695 34.6154 13.774Z" fill="#AFAFAF"/>
</svg>
