<svg width="69" height="69" viewBox="0 0 69 69" fill="none" xmlns="http://www.w3.org/2000/svg">
<g clip-path="url(#clip0_131_2075)">
<path d="M34.5 0C15.4468 0 0 15.4468 0 34.5C0 44.0279 3.86238 52.6529 10.1047 58.8953L3.53355 65.4664C2.22902 66.771 3.15352 69 4.99711 69H34.5C53.5532 69 69 53.5532 69 34.5C69 15.4468 53.5532 0 34.5 0Z" fill="#FF4500"/>
<path d="M41.5176 16.2678C42.1159 18.8041 44.3935 20.6935 47.113 20.6935C50.2881 20.6935 52.8621 18.1195 52.8621 14.9444C52.8621 11.7693 50.2881 9.19531 47.113 9.19531C44.3369 9.19531 42.0216 11.1629 41.4825 13.78C36.8331 14.2787 33.2025 18.2219 33.2025 23.0007C33.2025 23.0115 33.2025 23.0196 33.2025 23.0304C28.1461 23.2433 23.5291 24.6826 19.8634 26.9547C18.5023 25.9009 16.7935 25.2729 14.9391 25.2729C10.4891 25.2729 6.88281 28.8792 6.88281 33.3291C6.88281 36.5581 8.78031 39.3397 11.5214 40.6254C11.7883 49.9781 21.9793 57.5007 34.5152 57.5007C47.051 57.5007 57.2555 49.97 57.5089 40.6092C60.2284 39.3154 62.1098 36.542 62.1098 33.3318C62.1098 28.8819 58.5034 25.2755 54.0535 25.2755C52.2072 25.2755 50.5064 25.8982 49.148 26.9439C45.45 24.6556 40.7818 23.2163 35.6741 23.025C35.6741 23.0169 35.6741 23.0115 35.6741 23.0034C35.6741 19.5804 38.2185 16.7395 41.5176 16.2732V16.2678ZM19.54 38.4422C19.6748 35.5204 21.6154 33.2779 23.8714 33.2779C26.1273 33.2779 27.8523 35.6471 27.7176 38.5688C27.5828 41.4905 25.8982 42.5525 23.6396 42.5525C21.3809 42.5525 19.4052 41.3639 19.54 38.4422ZM45.1616 33.2779C47.4203 33.2779 49.3609 35.5204 49.493 38.4422C49.6278 41.3639 47.6494 42.5525 45.3934 42.5525C43.1375 42.5525 41.4502 41.4932 41.3154 38.5688C41.1807 35.6471 42.903 33.2779 45.1616 33.2779ZM42.4771 45.202C42.9003 45.2451 43.1698 45.6845 43.0054 46.078C41.6173 49.3959 38.3398 51.7273 34.5152 51.7273C30.6905 51.7273 27.4157 49.3959 26.0249 46.078C25.8605 45.6845 26.13 45.2451 26.5532 45.202C29.0329 44.9513 31.7147 44.8139 34.5152 44.8139C37.3156 44.8139 39.9947 44.9513 42.4771 45.202Z" fill="white"/>
</g>
<defs>
<clipPath id="clip0_131_2075">
<rect width="69" height="69" fill="white"/>
</clipPath>
</defs>
</svg>
