<svg width="30" height="29" viewBox="0 0 30 29" fill="none" xmlns="http://www.w3.org/2000/svg">
<path d="M12.7521 1.50532C13.6598 -0.376773 16.3402 -0.376773 17.2479 1.50532L19.8539 6.90892C20.225 7.67845 20.9639 8.20465 21.8125 8.30365L27.7906 9.00135C29.9269 9.25065 30.7684 11.9051 29.1658 13.3396L24.8845 17.1722C24.224 17.7634 23.9267 18.6607 24.1035 19.5294L25.2468 25.1467C25.6684 27.2177 23.4857 28.8424 21.6228 27.8443L16.1786 24.9276C15.4424 24.5332 14.5576 24.5332 13.8214 24.9276L8.3772 27.8443C6.5143 28.8424 4.3316 27.2177 4.7532 25.1467L5.8965 19.5294C6.0733 18.6607 5.776 17.7634 5.1155 17.1722L0.834151 13.3396C-0.768379 11.9051 0.0730705 9.25065 2.20939 9.00135L8.1875 8.30365C9.0361 8.20465 9.775 7.67845 10.1461 6.90892L12.7521 1.50532Z" fill="white"/>
</svg>
