<svg width="81" height="81" viewBox="0 0 81 81" fill="none" xmlns="http://www.w3.org/2000/svg">
<path d="M33.058 32.8555V30.0497C32.0842 29.8955 31.1004 29.8111 30.1144 29.7969C20.5688 29.7765 12.1176 35.9625 9.25106 45.0677C6.38448 54.1727 9.76814 64.0843 17.6034 69.5359C14.7302 66.4609 12.8084 62.6201 12.07 58.4769C11.3316 54.3337 11.8082 50.0655 13.4422 46.1871C15.0762 42.3089 17.7977 38.9865 21.2784 36.6209C24.759 34.2553 28.8506 32.9473 33.058 32.8555Z" fill="#25F4EE"/>
<path d="M33.5863 64.6376C38.9233 64.6302 43.3103 60.4258 43.5441 55.0938V7.51274H52.2365C52.0591 6.51848 51.9745 5.5099 51.9837 4.5H40.0941V52.0352C39.8965 57.3942 35.4989 61.6392 30.1365 61.6478C28.5339 61.6342 26.9575 61.2402 25.5371 60.498C26.4577 61.7734 27.6667 62.8132 29.0655 63.5326C30.4643 64.252 32.0133 64.6306 33.5863 64.6376ZM68.4725 23.6564V21.0118C65.2733 21.013 62.1451 20.0691 59.4807 18.2984C61.8165 21.0136 64.9729 22.8946 68.4725 23.6564Z" fill="#25F4EE"/>
<path d="M59.4809 18.301C56.8559 15.3122 55.4091 11.47 55.4103 7.49219H52.2365C52.6465 9.69147 53.5001 11.7841 54.7457 13.6425C55.9913 15.5009 57.6023 17.086 59.4809 18.301ZM30.1135 41.6891C27.8875 41.7003 25.7293 42.4555 23.9817 43.8343C22.2343 45.2133 20.9979 47.1367 20.4691 49.2991C19.9405 51.4613 20.1498 53.7383 21.0639 55.7679C21.9779 57.7977 23.5443 59.4635 25.5139 60.5007C24.4369 59.0137 23.7921 57.2581 23.6505 55.4279C23.5089 53.5975 23.8759 51.7635 24.7113 50.1287C25.5465 48.4939 26.8175 47.1217 28.3837 46.1641C29.9499 45.2063 31.7505 44.7001 33.5863 44.7015C34.5843 44.7145 35.5755 44.8699 36.5297 45.1629V33.0651C35.5551 32.9191 34.5717 32.8421 33.5863 32.8353H33.0571V42.0339C32.0979 41.7765 31.1063 41.6605 30.1135 41.6891Z" fill="#FE2C55"/>
<path d="M68.4737 23.6562V32.8552C62.5511 32.8436 56.7825 30.969 51.9847 27.4968V51.6668C51.9593 63.7274 42.1751 73.4912 30.1145 73.4912C25.6353 73.4992 21.2639 72.1172 17.6035 69.5356C20.5883 72.7462 24.4709 74.9834 28.7455 75.956C33.0199 76.9284 37.4883 76.5912 41.5683 74.988C45.6483 73.3848 49.1511 70.5902 51.6203 66.968C54.0893 63.3458 55.4105 59.0641 55.4115 54.6803V30.5786C60.2253 34.028 66.0011 35.8782 71.9231 35.868V24.0232C70.7637 24.0198 69.6077 23.8969 68.4737 23.6562Z" fill="#FE2C55"/>
<path d="M51.985 51.6697V27.4997C56.7974 30.9521 62.5742 32.8027 68.4968 32.7891V23.5903C64.9978 22.8515 61.834 20.9951 59.4822 18.301C57.6038 17.086 55.9926 15.5009 54.747 13.6425C53.5016 11.7841 52.6478 9.69147 52.2378 7.49219H43.5454V55.0971C43.4608 57.1691 42.7328 59.1635 41.4626 60.8029C40.1922 62.4421 38.443 63.6451 36.4576 64.2445C34.4722 64.8439 32.3494 64.8099 30.3842 64.1473C28.419 63.4847 26.709 62.2263 25.492 60.5471C23.522 59.5101 21.9554 57.8443 21.041 55.8145C20.1268 53.7847 19.9174 51.5075 20.446 49.3449C20.9748 47.1825 22.2114 45.2589 23.9592 43.8799C25.7068 42.5009 27.8654 41.7459 30.0916 41.7349C31.09 41.7439 32.0818 41.8989 33.0352 42.1949V32.9961C28.8052 33.0677 24.6874 34.3687 21.1838 36.7403C17.6804 39.1117 14.9427 42.4515 13.3044 46.3521C11.6662 50.2527 11.1982 54.5457 11.9576 58.7077C12.717 62.8695 14.671 66.7207 17.5812 69.7913C21.2776 72.2879 25.6552 73.5811 30.1148 73.4941C42.1754 73.4941 51.9596 63.7303 51.985 51.6697Z" fill="black"/>
</svg>
