<svg width="25" height="22" viewBox="0 0 25 22" fill="none" xmlns="http://www.w3.org/2000/svg">
<path d="M0.520833 0C0.233333 0 0 0.233333 0 0.520833V21.3542C0 21.6417 0.233333 21.875 0.520833 21.875H24.4792C24.7667 21.875 25 21.6417 25 21.3542V0.520833C25 0.233333 24.7667 0 24.4792 0H0.520833ZM1.04167 1.04167H2.60417V2.60417H1.04167V1.04167ZM3.64583 1.04167H5.72917V2.60417H3.64583V1.04167ZM6.77083 1.04167H8.85417V2.60417H6.77083V1.04167ZM9.89583 1.04167H11.9792V2.60417H9.89583V1.04167ZM13.0208 1.04167H15.1042V2.60417H13.0208V1.04167ZM16.1458 1.04167H18.2292V2.60417H16.1458V1.04167ZM19.2708 1.04167H21.3542V2.60417H19.2708V1.04167ZM22.3958 1.04167H23.9583V2.60417H22.3958V1.04167ZM10.4167 7.8125L15.625 10.9375L10.4167 14.0625V7.8125ZM1.04167 19.2708H2.60417V20.8333H1.04167V19.2708ZM3.64583 19.2708H5.72917V20.8333H3.64583V19.2708ZM6.77083 19.2708H8.85417V20.8333H6.77083V19.2708ZM9.89583 19.2708H11.9792V20.8333H9.89583V19.2708ZM13.0208 19.2708H15.1042V20.8333H13.0208V19.2708ZM16.1458 19.2708H18.2292V20.8333H16.1458V19.2708ZM19.2708 19.2708H21.3542V20.8333H19.2708V19.2708ZM22.3958 19.2708H23.9583V20.8333H22.3958V19.2708Z" fill="#F35D61"/>
</svg>
