<svg width="32" height="31" viewBox="0 0 32 31" fill="none" xmlns="http://www.w3.org/2000/svg">
<path d="M23.91 15.4384L30.24 9.10842C31.2044 8.09976 31.7356 6.75365 31.72 5.35822C31.7043 3.9628 31.143 2.62895 30.1563 1.64217C29.1695 0.655399 27.8356 0.094115 26.4402 0.0784614C25.0448 0.0628077 23.6987 0.594028 22.69 1.55842L16.36 7.88842L10 1.55842C8.99135 0.594028 7.64524 0.0628077 6.24982 0.0784614C4.85439 0.094115 3.52054 0.655399 2.53377 1.64217C1.54699 2.62895 0.985717 3.9628 0.970063 5.35822C0.954409 6.75365 1.48562 8.09976 2.45001 9.10842L8.78001 15.4384L2.45001 21.7684C1.48562 22.7771 0.954409 24.1232 0.970063 25.5186C0.985717 26.914 1.54699 28.2479 2.53377 29.2347C3.52054 30.2214 4.85439 30.7827 6.24982 30.7984C7.64524 30.814 8.99135 30.2828 10 29.3184L16.33 22.9884L22.66 29.3184C23.6687 30.2828 25.0148 30.814 26.4102 30.7984C27.8056 30.7827 29.1395 30.2214 30.1263 29.2347C31.113 28.2479 31.6743 26.914 31.69 25.5186C31.7056 24.1232 31.1744 22.7771 30.21 21.7684L23.91 15.4384Z" fill="#EC0B1B"/>
</svg>
