<svg width="81" height="57" viewBox="0 0 81 57" fill="none" xmlns="http://www.w3.org/2000/svg">
<path d="M41.9544 56.0166L25.5152 55.7164C20.1927 55.6118 14.8568 55.8205 9.63849 54.7369C1.70028 53.1179 1.13791 45.1792 0.54945 38.52C-0.261392 29.1582 0.0525092 19.6264 1.58267 10.3426C2.44649 5.13339 5.84601 2.02505 11.1032 1.68681C28.8502 0.459251 46.7152 0.604731 64.4228 1.17743C66.293 1.22993 68.176 1.51687 70.02 1.84351C79.1228 3.43655 79.3448 12.4329 79.9348 20.0061C80.5232 27.6575 80.2748 35.3484 79.15 42.9476C78.2476 49.2398 76.5212 54.5162 69.2352 55.0256C60.1066 55.6916 51.1872 56.2278 42.0328 56.0572C42.0332 56.0166 41.9806 56.0166 41.9544 56.0166ZM32.2898 40.087C39.1692 36.1434 45.9172 32.2656 52.7572 28.3486C45.865 24.405 39.1298 20.5271 32.2898 16.6101V40.087Z" fill="#FF0000"/>
<path d="M32.2891 40.0862C39.1685 36.1426 45.9165 32.2648 52.7565 28.3478C45.8643 24.4042 39.1291 20.5264 32.2891 16.6094V40.0862Z" fill="white"/>
</svg>
